<?xml version="1.0" standalone="no"?>
<!DOCTYPE svg PUBLIC "-//W3C//DTD SVG 20010904//EN"
 "http://www.w3.org/TR/2001/REC-SVG-20010904/DTD/svg10.dtd">
<svg version="1.0" xmlns="http://www.w3.org/2000/svg"
 width="1200.000000pt" height="1200.000000pt" viewBox="0 0 1200.000000 1200.000000"
 preserveAspectRatio="xMidYMid meet">
<metadata>
Created by potrace 1.14, written by Peter Selinger 2001-2017
</metadata>
<g transform="translate(0.000000,1200.000000) scale(0.100000,-0.100000)"
fill="#000000" stroke="none">
<path d="M3170 10789 c-36 -4 -85 -11 -110 -14 -161 -20 -440 -95 -570 -152
-299 -133 -497 -266 -673 -453 -177 -188 -288 -393 -332 -615 -18 -89 -20
-480 -20 -3765 1 -3218 3 -3675 20 -3722 2 -7 7 -24 9 -38 22 -110 93 -270
168 -377 162 -231 426 -396 708 -441 57 -9 6129 -9 6191 0 225 33 451 152 612
322 60 63 152 193 182 257 11 23 31 43 54 54 20 9 72 41 116 70 236 157 406
413 455 687 15 81 18 111 20 238 l1 105 70 45 c78 50 186 154 254 245 109 144
189 363 203 552 4 54 6 1358 6 2898 -1 2714 -2 2831 -29 2980 -9 48 -57 219
-65 230 -4 6 -11 21 -15 35 -19 66 -106 220 -176 313 -198 264 -480 447 -798
517 -47 10 -102 22 -121 26 -47 11 -6077 14 -6160 3z"/>
</g>
</svg>
